<?xml version="1.0" encoding="UTF-8"?><svg id="Layer_1" xmlns="http://www.w3.org/2000/svg" viewBox="0 0 127.01 60.96"><defs><style>.cls-1{fill:#f25749;}</style></defs><polygon class="cls-1" points="14.03 3.35 10.72 0 7.54 3.35 10.72 6.66 14.03 3.35"/><polygon class="cls-1" points="7.08 3.35 3.85 0 .59 3.35 3.85 6.66 7.08 3.35"/><polygon class="cls-1" points="28.79 10.38 25.44 6.94 22.13 10.38 25.44 13.77 28.79 10.38"/><path class="cls-1" d="M111.62,11.08c4.06-1.21,5.95-2.38,5.95-5.19,0-2.38-1.51-4.15-3.72-4.15-1.76,0-3.23,1.18-3.23,3.15s1.51,2.56,2.56,2.56c1.67,0,2.47-1.55,2.51-2.93.51.42.8,1,.8,1.72,0,1.26-.92,1.84-3.05,2.43l-4.82,1.34v1.63l.21.29,2.8-.84ZM113.42,5.6c-.96,0-1.59-.21-1.59-.75,0-.67,1.05-1,1.88-1,.67,0,1.29.2,1.8.54-.38.84-.84,1.22-2.1,1.22Z"/><path class="cls-1" d="M124.7,14.87c-1.42.67-2.84,1.25-4.35,1.62,1.42,3.65,3.01,7.89,3.01,8.83s-1.59,1.39-3.32,1.39-3.57-.47-4.82-1.25c.22-.92.33-1.89.33-2.98v-4.43c-1.45.75-2.79,1.25-4.1,1.53,0,1,.14,3.79.14,4.4,0,1.98-.72,2.31-3.73,2.31-3.76,0-3.98-.47-3.98-2.81v-5.43c-1.45.75-2.79,1.25-4.1,1.53,0,.98.14,3.29.14,3.87,0,1.95-1.42,2.51-4.49,2.62-.47.03-.98.03-1.5.03h-.03c-1.37,0-2.23-.2-3.15-.86-.92-.67-1.92-1.81-3.51-3.68-3.23-3.73-5.8-6.19-10-8.78,4.65-2.67,7.94-4.63,12.37-7.13.33-1.59.84-3.68,1.39-5.07l-.39-.45c-9,5.32-13.76,8.25-17.42,10.56v4.79c4.54,1.64,7.63,4.96,11.03,8.83-1.5,1.48-5.38,1.78-11.7,1.78h-36.98c-4.49,0-4.68-.56-4.68-2.62v-6.69c-1.48.75-2.81,1.25-4.1,1.53,0,.92.11,4.71.11,5.24,0,2.15-1.87,2.54-5.99,2.54h-.03c-1.87,0-3.06-.28-3.93-1-.86-.72-1.39-1.92-1.84-3.79-.2-.84-.75-3.32-2.4-11.48-1.62.61-2.84.98-4.54,1.28.36,1,.7,1.89,1.03,2.76C3.69,14.87.37,17.9.37,22.53s3.4,7.36,7.33,7.36c3.09,0,5.07-1.78,6.02-3.85,1.89,4.26,4.21,5.57,7.16,5.57h.03c5.15,0,7.55-2.17,8.25-4.82.56,3.04,3.09,4.79,6.38,4.82h37c6.07,0,11.62-1.48,13.29-5.49,3.59,4.07,5.24,5.49,8.08,5.49h.03c.53,0,1.03-.03,1.5-.06,4.04-.39,6.07-2.37,6.69-4.68.39,2.34,2.48,4.74,5.94,4.74,2.48,0,4.54-1.2,5.82-3.15,1.23,1.95,3.51,3.57,5.99,3.57,3.26,0,5.94-2.7,5.94-7.38,0-1.17-.14-2.68-.14-3.09,0-.67.36-1,1.34-1.11v-.64c-.86-1.31-1.89-3.68-2.31-4.93ZM7.78,24.79c-2.56,0-6.02-.39-6.02-2.17,0-1.64,2.79-3.73,9-4.51,1.34,3.51,1.45,3.87,2.09,5.68-1.59.78-3.15,1-5.07,1Z"/><path class="cls-1" d="M19.41,49.41c-1.22-.51-2.92-.85-5.07-1.04l-4.55-.34c-1.19-.11-2-.29-2.43-.54-.43-.24-.64-.59-.64-1.01,0-.56.35-.98,1.05-1.28.7-.29,1.71-.44,3.03-.44,1.17,0,2.12.11,2.85.36.73.23,1.29.54,1.68.92.4.39.63.8.73,1.25h6.37c-.13-1.33-.7-2.49-1.7-3.47-1-.99-2.33-1.77-3.98-2.33-1.65-.56-3.54-.84-5.65-.84s-3.96.24-5.53.71c-1.58.48-2.81,1.18-3.69,2.13-.89.94-1.33,2.12-1.33,3.53,0,1.04.27,1.97.83,2.8.55.83,1.48,1.52,2.78,2.06,1.3.54,3.06.89,5.26,1.05l3.51.27c1.42.11,2.4.29,2.95.54.55.24.83.61.83,1.08,0,.63-.38,1.11-1.15,1.42-.76.31-1.89.47-3.37.47-1.11,0-2.06-.1-2.87-.31-.81-.21-1.47-.54-1.97-.96-.51-.43-.83-.92-.96-1.48H0c.07,1.39.59,2.62,1.58,3.67.99,1.06,2.37,1.88,4.15,2.47,1.78.58,3.85.87,6.21.87s4.28-.25,5.9-.77c1.62-.52,2.85-1.28,3.69-2.28.84-.99,1.26-2.21,1.26-3.65,0-1.11-.26-2.06-.77-2.87-.52-.81-1.39-1.46-2.62-1.97Z"/><path class="cls-1" d="M47.39,41.2h-6.27v9.28c0,1.1-.2,2.05-.59,2.86-.39.81-.95,1.43-1.67,1.86-.72.43-1.59.64-2.63.64-1.4,0-2.46-.42-3.21-1.25-.74-.83-1.11-2.02-1.11-3.57v-9.81h-6.27v10.72c0,1.85.33,3.44.99,4.79.66,1.35,1.62,2.4,2.88,3.13,1.26.73,2.79,1.1,4.59,1.1,1.53,0,2.93-.37,4.2-1.09,1.27-.71,2.32-1.78,3.17-3.19.07-.12.11-.28.18-.41l.68,4.18h6.28l-1.22-6.55v-12.68Z"/><polygon class="cls-1" points="74 41.2 67.29 41.2 57.98 52.65 57.98 34.45 51.74 34.45 51.74 60.42 57.37 60.42 63.32 53.55 67.39 60.42 74.51 60.42 67.31 48.93 74 41.2"/><path class="cls-1" d="M94.8,41.75c-1.29-.73-2.86-1.1-4.7-1.1-1.55,0-2.97.37-4.27,1.1-1.29.73-2.37,1.8-3.24,3.19-.09.15-.14.34-.22.49l-.71-4.22h-6.24l1.22,6.54v12.69h6.27v-9.28c0-1.11.21-2.05.62-2.85.42-.79,1-1.41,1.76-1.86.75-.44,1.64-.65,2.68-.65,1.46,0,2.59.41,3.37,1.23.79.82,1.18,2.03,1.18,3.62v9.78h6.27v-10.73c0-1.87-.35-3.47-1.03-4.82-.69-1.35-1.67-2.4-2.97-3.13Z"/><path class="cls-1" d="M120.05,41.2l-.49,4.08c-.93-1.41-2.08-2.55-3.46-3.35-1.44-.84-3.05-1.27-4.86-1.27s-3.55.43-4.97,1.29c-1.43.85-2.55,2.04-3.36,3.55-.81,1.52-1.21,3.29-1.21,5.32s.41,3.8,1.21,5.31c.81,1.52,1.93,2.71,3.36,3.56,1.43.85,3.09,1.28,4.97,1.28s3.42-.42,4.86-1.26c1.39-.82,2.53-1.96,3.45-3.38l.5,4.11h6.51l-1.18-9.61,1.18-9.61h-6.51ZM113.23,54.49c-3.02,0-7.11-.45-7.11-2.57,0-1.93,3.3-4.39,10.61-5.32,1.58,4.14,1.72,4.58,2.46,6.71-1.88.93-3.7,1.18-5.97,1.18Z"/></svg>