<?xml version="1.0" encoding="UTF-8"?>
<svg id="Layer_1" xmlns="http://www.w3.org/2000/svg" viewBox="0 0 45.58 31.68">
  <defs>
    <style>
      .cls-1 {
        font-family: Risala-SemiBold, Risala;
        font-size: 5.25px;
        font-weight: 600;
      }
    </style>
  </defs>
  <text class="cls-1" transform="translate(.23 28.52)"><tspan x="0" y="0">نبض المدن ومفاتيحها</tspan></text>
  <g>
    <polygon points="5.03 1.2 3.85 0 2.7 1.2 3.85 2.39 5.03 1.2"/>
    <polygon points="2.54 1.2 1.38 0 .21 1.2 1.38 2.39 2.54 1.2"/>
    <polygon points="10.33 3.73 9.13 2.49 7.94 3.73 9.13 4.94 10.33 3.73"/>
    <path d="M40.06,3.98c1.46-.43,2.13-.86,2.13-1.86,0-.86-.54-1.49-1.34-1.49-.63,0-1.16.42-1.16,1.13s.54.92.92.92c.6,0,.89-.56.9-1.05.18.15.29.36.29.62,0,.45-.33.66-1.1.87l-1.73.48v.59l.08.11,1.01-.3ZM40.7,2.01c-.35,0-.57-.08-.57-.27,0-.24.38-.36.68-.36.24,0,.46.07.65.19-.14.3-.3.44-.75.44Z"/>
    <path d="M44.75,5.34c-.51.24-1.02.45-1.56.58.51,1.31,1.08,2.83,1.08,3.17s-.57.5-1.19.5-1.28-.17-1.73-.45c.08-.33.12-.68.12-1.07v-1.59c-.52.27-1,.45-1.47.55,0,.36.05,1.36.05,1.58,0,.71-.26.83-1.34.83-1.35,0-1.43-.17-1.43-1.01v-1.95c-.52.27-1,.45-1.47.55,0,.35.05,1.18.05,1.39,0,.7-.51.9-1.61.94-.17.01-.35.01-.54.01h0c-.49,0-.8-.07-1.13-.31-.33-.24-.69-.65-1.26-1.32-1.16-1.34-2.08-2.22-3.59-3.15,1.67-.96,2.85-1.66,4.44-2.56.12-.57.3-1.32.5-1.82l-.14-.16c-3.23,1.91-4.94,2.96-6.25,3.79v1.72c1.63.59,2.74,1.78,3.96,3.17-.54.53-1.93.64-4.2.64h-13.27c-1.61,0-1.68-.2-1.68-.94v-2.4c-.53.27-1.01.45-1.47.55,0,.33.04,1.69.04,1.88,0,.77-.67.91-2.15.91h-.01c-.67,0-1.1-.1-1.41-.36-.31-.26-.5-.69-.66-1.36-.07-.3-.27-1.19-.86-4.12-.58.22-1.02.35-1.63.46.13.36.25.68.37.99-1.98.36-3.17,1.45-3.17,3.11s1.22,2.64,2.63,2.64c1.11,0,1.82-.64,2.16-1.38.68,1.53,1.51,2,2.57,2h.01c1.85,0,2.71-.78,2.96-1.73.2,1.09,1.11,1.72,2.29,1.73h13.28c2.18,0,4.17-.53,4.77-1.97,1.29,1.46,1.88,1.97,2.9,1.97h0c.19,0,.37-.01.54-.02,1.45-.14,2.18-.85,2.4-1.68.14.84.89,1.7,2.13,1.7.89,0,1.63-.43,2.09-1.13.44.7,1.26,1.28,2.15,1.28,1.17,0,2.13-.97,2.13-2.65,0-.42-.05-.96-.05-1.11,0-.24.13-.36.48-.4v-.23c-.31-.47-.68-1.32-.83-1.77ZM2.79,8.9c-.92,0-2.16-.14-2.16-.78,0-.59,1-1.34,3.23-1.62.48,1.26.52,1.39.75,2.04-.57.28-1.13.36-1.82.36Z"/>
    <path d="M6.97,17.73c-.44-.18-1.05-.31-1.82-.37l-1.63-.12c-.43-.04-.72-.11-.87-.19-.15-.09-.23-.21-.23-.36,0-.2.12-.35.38-.46.25-.11.61-.16,1.09-.16.42,0,.76.04,1.02.13.26.08.46.19.6.33.14.14.23.29.26.45h2.29c-.05-.48-.25-.89-.61-1.25-.36-.36-.84-.63-1.43-.84-.59-.2-1.27-.3-2.03-.3s-1.42.09-1.98.25c-.57.17-1.01.42-1.33.76-.32.34-.48.76-.48,1.27,0,.37.1.71.3,1.01.2.3.53.55,1,.74.47.19,1.1.32,1.89.38l1.26.1c.51.04.86.11,1.06.19.2.09.3.22.3.39,0,.23-.14.4-.41.51-.27.11-.68.17-1.21.17-.4,0-.74-.04-1.03-.11-.29-.08-.53-.19-.71-.35-.18-.15-.3-.33-.35-.53H0c.02.5.21.94.57,1.32s.85.67,1.49.89c.64.21,1.38.31,2.23.31s1.54-.09,2.12-.28c.58-.19,1.02-.46,1.33-.82.3-.36.45-.79.45-1.31,0-.4-.09-.74-.28-1.03-.19-.29-.5-.52-.94-.71Z"/>
    <path d="M17.01,14.79h-2.25v3.33c0,.39-.07.74-.21,1.03-.14.29-.34.51-.6.67-.26.15-.57.23-.94.23-.5,0-.88-.15-1.15-.45-.27-.3-.4-.72-.4-1.28v-3.52h-2.25v3.85c0,.66.12,1.23.36,1.72.24.48.58.86,1.03,1.12.45.26,1,.39,1.65.39.55,0,1.05-.13,1.51-.39.46-.25.83-.64,1.14-1.14.03-.04.04-.1.07-.15l.24,1.5h2.25l-.44-2.35v-4.55Z"/>
    <polygon points="26.56 14.79 24.15 14.79 20.81 18.89 20.81 12.37 18.57 12.37 18.57 21.69 20.59 21.69 22.73 19.22 24.19 21.69 26.74 21.69 24.16 17.56 26.56 14.79"/>
    <path d="M34.02,14.98c-.46-.26-1.03-.39-1.69-.39-.56,0-1.07.13-1.53.39-.46.26-.85.64-1.16,1.14-.03.05-.05.12-.08.18l-.25-1.52h-2.24l.44,2.35v4.55h2.25v-3.33c0-.4.07-.74.22-1.02.15-.28.36-.51.63-.67.27-.16.59-.23.96-.23.52,0,.93.15,1.21.44.28.3.42.73.42,1.3v3.51h2.25v-3.85c0-.67-.12-1.25-.37-1.73-.25-.48-.6-.86-1.07-1.12Z"/>
    <path d="M43.08,14.79l-.18,1.46c-.34-.51-.75-.91-1.24-1.2-.52-.3-1.1-.46-1.74-.46s-1.27.15-1.78.46c-.51.31-.91.73-1.21,1.27-.29.55-.44,1.18-.44,1.91s.15,1.36.44,1.9c.29.55.69.97,1.21,1.28.51.31,1.11.46,1.78.46s1.23-.15,1.74-.45c.5-.29.91-.7,1.24-1.21l.18,1.47h2.34l-.42-3.45.42-3.45h-2.34ZM40.64,19.56c-1.08,0-2.55-.16-2.55-.92,0-.69,1.19-1.58,3.81-1.91.57,1.49.62,1.64.88,2.41-.67.33-1.33.43-2.14.43Z"/>
  </g>
</svg>