<?xml version="1.0" encoding="UTF-8"?><svg id="Layer_1" xmlns="http://www.w3.org/2000/svg" viewBox="0 0 127.93 127.93"><defs><style>.cls-1{fill:#423dd9;}.cls-2{fill:#fff;}</style></defs><rect class="cls-1" x="0" width="127.93" height="127.93" rx="39.46" ry="39.46"/><polygon class="cls-2" points="20.41 40.08 17.49 37.13 14.69 40.08 17.49 42.99 20.41 40.08"/><polygon class="cls-2" points="14.29 40.08 11.45 37.13 8.58 40.08 11.45 42.99 14.29 40.08"/><polygon class="cls-2" points="33.4 46.27 30.45 43.24 27.54 46.27 30.45 49.26 33.4 46.27"/><path class="cls-2" d="M106.32,46.89c3.57-1.06,5.24-2.1,5.24-4.57,0-2.1-1.33-3.65-3.28-3.65-1.55,0-2.84,1.04-2.84,2.77s1.33,2.25,2.25,2.25c1.47,0,2.17-1.37,2.21-2.58.45.37.7.88.7,1.51,0,1.11-.81,1.62-2.69,2.14l-4.24,1.18v1.44l.19.26,2.47-.74ZM107.9,42.06c-.85,0-1.4-.19-1.4-.66,0-.59.92-.88,1.66-.88.59,0,1.14.18,1.59.47-.34.74-.74,1.07-1.84,1.07Z"/><path class="cls-2" d="M117.83,50.22c-1.25.59-2.5,1.1-3.83,1.42,1.25,3.21,2.65,6.94,2.65,7.78s-1.4,1.23-2.92,1.23-3.14-.42-4.24-1.1c.2-.81.29-1.67.29-2.62v-3.9c-1.28.66-2.45,1.1-3.61,1.35,0,.88.12,3.34.12,3.88,0,1.74-.64,2.04-3.29,2.04-3.31,0-3.51-.42-3.51-2.48v-4.78c-1.28.66-2.45,1.1-3.61,1.35,0,.86.12,2.89.12,3.41,0,1.72-1.25,2.21-3.95,2.31-.42.02-.86.02-1.32.02h-.02c-1.2,0-1.96-.17-2.77-.76-.81-.59-1.69-1.59-3.09-3.24-2.85-3.29-5.1-5.45-8.81-7.73,4.1-2.35,6.99-4.07,10.89-6.28.29-1.4.74-3.24,1.23-4.46l-.34-.39c-7.92,4.68-12.12,7.26-15.33,9.3v4.22c4,1.45,6.72,4.37,9.71,7.78-1.32,1.3-4.73,1.57-10.3,1.57h-32.55c-3.95,0-4.12-.49-4.12-2.31v-5.89c-1.3.66-2.48,1.1-3.61,1.35,0,.81.1,4.15.1,4.61,0,1.89-1.64,2.23-5.27,2.23h-.02c-1.64,0-2.7-.25-3.46-.88-.76-.64-1.23-1.69-1.62-3.34-.17-.74-.66-2.92-2.11-10.11-1.42.54-2.5.86-4,1.13.32.88.61,1.67.91,2.43-4.86.88-7.78,3.56-7.78,7.63s2.99,6.48,6.45,6.48c2.72,0,4.46-1.57,5.3-3.38,1.67,3.75,3.7,4.91,6.3,4.91h.02c4.54,0,6.65-1.91,7.26-4.24.49,2.67,2.72,4.22,5.62,4.24h32.57c5.35,0,10.23-1.3,11.7-4.83,3.16,3.58,4.61,4.83,7.11,4.83h.02c.47,0,.91-.02,1.32-.05,3.56-.34,5.35-2.08,5.89-4.12.34,2.06,2.18,4.17,5.22,4.17,2.18,0,4-1.05,5.13-2.77,1.08,1.72,3.09,3.14,5.27,3.14,2.87,0,5.22-2.38,5.22-6.5,0-1.03-.12-2.35-.12-2.72,0-.59.32-.88,1.18-.98v-.56c-.76-1.15-1.67-3.24-2.04-4.34ZM14.91,58.95c-2.26,0-5.3-.34-5.3-1.91,0-1.45,2.45-3.29,7.92-3.97,1.18,3.09,1.28,3.41,1.84,5-1.4.69-2.77.88-4.46.88Z"/><path class="cls-2" d="M25.15,80.63c-1.08-.45-2.57-.75-4.47-.91l-4.01-.29c-1.05-.1-1.76-.26-2.14-.47-.38-.21-.56-.52-.56-.89,0-.49.3-.87.92-1.13.61-.26,1.5-.38,2.67-.38,1.03,0,1.87.1,2.51.31.64.21,1.13.47,1.48.81.35.34.56.71.64,1.1h5.61c-.12-1.17-.62-2.19-1.5-3.06-.88-.88-2.05-1.55-3.51-2.05-1.45-.49-3.11-.74-4.97-.74s-3.48.21-4.87.63c-1.39.42-2.47,1.04-3.25,1.88-.78.83-1.17,1.87-1.17,3.11,0,.91.24,1.73.73,2.47.49.73,1.3,1.34,2.45,1.81,1.15.47,2.69.79,4.63.92l3.09.24c1.25.1,2.11.26,2.6.47.49.21.73.54.73.95,0,.55-.34.97-1.01,1.25-.67.28-1.66.41-2.97.41-.97,0-1.81-.09-2.52-.28-.71-.19-1.3-.47-1.74-.85-.45-.38-.73-.81-.85-1.3h-5.61c.06,1.22.52,2.3,1.39,3.23.87.93,2.09,1.65,3.65,2.17,1.56.51,3.39.77,5.46.77s3.77-.22,5.19-.68c1.42-.46,2.51-1.13,3.25-2.01.74-.88,1.11-1.95,1.11-3.22,0-.97-.23-1.81-.68-2.53-.46-.71-1.22-1.29-2.3-1.73Z"/><path class="cls-2" d="M49.78,73.4h-5.52v8.17c0,.96-.17,1.8-.52,2.52-.34.71-.84,1.26-1.47,1.63-.63.38-1.4.56-2.31.56-1.23,0-2.17-.37-2.82-1.1-.65-.73-.98-1.78-.98-3.14v-8.64h-5.52v9.43c0,1.63.29,3.03.88,4.22.58,1.19,1.43,2.11,2.54,2.75,1.11.64,2.46.96,4.04.96,1.34,0,2.58-.32,3.7-.96,1.12-.63,2.05-1.56,2.79-2.81.07-.11.1-.25.16-.36l.6,3.68h5.53l-1.07-5.76v-11.16Z"/><polygon class="cls-2" points="73.2 73.4 67.3 73.4 59.1 83.48 59.1 67.46 53.61 67.46 53.61 90.32 58.57 90.32 63.8 84.27 67.38 90.32 73.65 90.32 67.32 80.21 73.2 73.4"/><path class="cls-2" d="M91.51,73.89c-1.14-.64-2.52-.96-4.14-.96-1.37,0-2.62.32-3.76.96-1.14.64-2.09,1.58-2.85,2.81-.08.13-.12.3-.2.43l-.62-3.72h-5.49l1.07,5.75v11.17h5.52v-8.17c0-.97.18-1.8.55-2.51.37-.7.88-1.24,1.55-1.63.66-.38,1.45-.57,2.36-.57,1.29,0,2.28.36,2.97,1.08.69.72,1.04,1.79,1.04,3.19v8.61h5.52v-9.44c0-1.64-.3-3.06-.91-4.24-.6-1.19-1.47-2.11-2.61-2.75Z"/><path class="cls-2" d="M113.74,73.4l-.43,3.59c-.82-1.24-1.83-2.24-3.04-2.95-1.26-.74-2.69-1.12-4.27-1.12s-3.12.38-4.38,1.13c-1.26.75-2.24,1.8-2.96,3.13-.71,1.34-1.07,2.89-1.07,4.68s.36,3.34,1.07,4.67c.71,1.34,1.7,2.39,2.96,3.14,1.26.75,2.72,1.13,4.38,1.13s3.01-.37,4.27-1.11c1.22-.72,2.22-1.72,3.04-2.98l.44,3.61h5.73l-1.04-8.46,1.04-8.46h-5.73ZM107.74,85.1c-2.65,0-6.26-.4-6.26-2.26,0-1.7,2.91-3.87,9.34-4.69,1.39,3.64,1.52,4.03,2.17,5.91-1.65.82-3.26,1.04-5.26,1.04Z"/></svg>